<?xml version="1.0" standalone="no"?>
<!DOCTYPE svg PUBLIC "-//W3C//DTD SVG 20010904//EN"
 "http://www.w3.org/TR/2001/REC-SVG-20010904/DTD/svg10.dtd">
<svg version="1.0" xmlns="http://www.w3.org/2000/svg"
 width="137.000000pt" height="137.000000pt" viewBox="0 0 137.000000 137.000000"
 preserveAspectRatio="xMidYMid meet">
<metadata>
Created by potrace 1.14, written by Peter Selinger 2001-2017
</metadata>
<g transform="translate(0.000000,137.000000) scale(0.100000,-0.100000)"
fill="#000000" stroke="none">
<path d="M558 1269 c-22 -12 -23 -52 -3 -69 10 -9 15 -32 15 -77 0 -57 -2 -63
-15 -49 -8 8 -15 24 -15 35 0 41 -72 52 -83 12 -7 -28 11 -51 40 -51 32 0 73
-45 73 -82 0 -17 13 -39 35 -62 19 -20 35 -38 35 -40 0 -2 -23 -26 -51 -54
-35 -35 -50 -58 -49 -74 4 -42 0 -42 -45 2 -41 40 -43 45 -29 61 9 10 22 15
30 12 39 -15 61 57 24 77 -33 18 -66 -7 -61 -46 2 -15 -28 -39 -36 -30 -4 4
-8 70 -8 147 -1 122 2 144 17 161 23 27 23 33 -2 58 -17 17 -24 18 -41 10 -29
-16 -34 -38 -16 -69 15 -26 21 -177 7 -186 -9 -5 -82 69 -79 81 7 42 -35 70
-66 44 -29 -24 -15 -67 23 -73 13 -2 47 -28 78 -58 46 -46 54 -58 50 -83 -4
-25 6 -40 78 -115 88 -92 84 -82 77 -186 -1 -5 -23 13 -51 40 -27 26 -48 51
-46 54 2 3 0 16 -5 29 -6 16 -16 22 -39 22 -34 0 -45 -17 -36 -55 5 -19 13
-25 34 -25 20 0 43 -15 87 -60 l59 -60 0 -206 c1 -157 4 -208 14 -212 14 -4
13 -26 13 387 l-1 294 45 44 c25 23 48 43 52 43 5 0 26 -21 48 -45 l40 -46 1
-334 c0 -184 4 -338 7 -342 18 -17 22 23 22 212 l0 205 60 60 c35 35 68 60 80
60 46 0 60 48 23 74 -19 13 -25 14 -43 2 -11 -7 -20 -23 -20 -34 0 -19 -80
-112 -96 -112 -3 0 -6 25 -4 56 2 55 3 56 78 132 68 68 77 82 77 114 0 32 8
45 55 90 31 29 60 54 65 54 6 1 17 2 25 3 20 1 30 47 15 66 -18 22 -57 19 -70
-5 -6 -11 -8 -25 -4 -31 5 -8 -68 -89 -80 -89 -2 0 -4 37 -4 83 -1 58 4 91 16
114 15 30 15 33 -2 51 -37 42 -92 -8 -61 -55 14 -21 17 -51 18 -165 0 -76 -3
-141 -6 -145 -11 -11 -38 7 -36 24 3 33 -1 42 -21 53 -28 15 -60 -4 -60 -34 0
-27 14 -41 53 -50 15 -3 27 -12 27 -19 0 -12 -79 -96 -81 -87 -1 3 -2 19 -3
35 -1 21 -16 45 -49 78 -26 27 -47 51 -47 54 0 3 16 21 35 40 19 19 35 45 35
58 0 32 36 73 73 83 26 7 32 13 32 37 0 57 -66 59 -73 2 -2 -14 -9 -31 -17
-37 -11 -9 -14 0 -17 51 -2 37 2 67 8 74 23 23 25 51 4 70 -18 16 -23 17 -45
5 -28 -15 -34 -57 -10 -66 24 -9 21 -221 -3 -249 -40 -46 -48 -48 -79 -18 -16
16 -32 36 -35 45 -8 19 41 68 60 61 19 -7 42 16 42 43 0 16 -8 28 -25 36 -31
14 -50 0 -59 -44 -10 -48 -19 -26 -18 46 0 41 6 73 16 88 14 22 14 26 0 46
-17 24 -30 27 -56 11z"/>
<path d="M281 881 c-17 -11 -18 -61 -2 -71 18 -10 9 -71 -11 -84 -14 -8 -24
-4 -52 23 -20 20 -32 39 -29 50 6 24 -28 52 -55 45 -43 -12 -39 -70 7 -80 15
-4 82 -62 164 -143 l137 -136 0 -50 0 -50 -84 84 c-47 47 -83 88 -80 93 8 13
-14 45 -36 51 -29 8 -56 -33 -40 -62 6 -12 21 -21 33 -21 15 0 53 -31 115 -93
l92 -92 0 -104 c0 -76 3 -102 12 -99 9 3 12 51 12 181 l0 177 -94 95 -94 94
22 24 c14 15 22 36 22 59 0 23 6 38 15 42 20 7 19 40 -1 60 -17 18 -32 20 -53
7z"/>
<path d="M998 879 c-22 -12 -23 -52 -4 -68 8 -7 13 -24 11 -40 -3 -19 4 -36
22 -55 l26 -28 -95 -96 -95 -97 2 -170 c3 -203 2 -198 15 -190 6 3 10 51 10
108 l0 102 93 93 c60 60 100 92 114 92 28 0 43 28 32 58 -16 41 -79 23 -79
-23 0 -13 -31 -51 -81 -100 l-80 -79 3 51 c3 52 3 52 137 187 73 75 141 136
150 136 44 1 63 50 28 75 -12 8 -25 15 -29 15 -13 0 -38 -32 -38 -50 0 -10
-14 -34 -32 -54 l-32 -36 -23 22 c-28 26 -29 52 -3 85 18 23 19 29 6 47 -16
25 -34 30 -58 15z"/>
<path d="M644 800 c-31 -12 -36 -35 -13 -63 17 -22 19 -41 18 -152 0 -99 -3
-127 -15 -132 -19 -7 -18 -62 1 -69 12 -5 15 -33 15 -165 0 -127 3 -159 13
-159 11 0 14 30 13 147 -1 100 3 155 12 171 15 30 16 69 1 74 -16 5 -17 270
-1 276 7 2 12 17 12 32 0 34 -25 51 -56 40z"/>
</g>
</svg>
